G04 #@! TF.FileFunction,Soldermask,Top*
%FSLAX46Y46*%
G04 Gerber Fmt 4.6, Leading zero omitted, Abs format (unit mm)*
G04 Created by KiCad (PCBNEW 4.0.6) date 07/14/17 14:36:20*
%MOMM*%
%LPD*%
G01*
G04 APERTURE LIST*
%ADD10C,0.100000*%
%ADD11R,1.500000X5.000000*%
%ADD12R,11.200000X9.800000*%
%ADD13R,1.900000X1.700000*%
%ADD14C,6.800000*%
%ADD15R,1.650000X1.400000*%
%ADD16R,1.400000X1.650000*%
%ADD17R,1.600000X1.300000*%
%ADD18R,3.400000X3.400000*%
%ADD19C,3.400000*%
%ADD20R,2.100000X2.100000*%
%ADD21O,2.100000X2.100000*%
%ADD22R,1.700000X1.900000*%
%ADD23C,1.840000*%
%ADD24R,1.900000X1.000000*%
%ADD25R,1.000000X1.900000*%
%ADD26R,1.600000X2.600000*%
%ADD27R,6.200000X6.800000*%
%ADD28R,1.700000X1.100000*%
%ADD29R,3.900000X2.000000*%
G04 APERTURE END LIST*
D10*
D11*
X99470000Y-36890000D03*
X101170000Y-36890000D03*
X102870000Y-36890000D03*
X104570000Y-36890000D03*
X106270000Y-36890000D03*
D12*
X102870000Y-27740000D03*
D13*
X92155000Y-27940000D03*
X89455000Y-27940000D03*
D14*
X117475000Y-25400000D03*
X117475000Y-68580000D03*
X33020000Y-68580000D03*
D15*
X66802000Y-38084000D03*
X66802000Y-36084000D03*
D16*
X75930000Y-50165000D03*
X73930000Y-50165000D03*
X73676000Y-63246000D03*
X75676000Y-63246000D03*
D15*
X40005000Y-42180000D03*
X40005000Y-44180000D03*
X41910000Y-44180000D03*
X41910000Y-42180000D03*
D16*
X75930000Y-35560000D03*
X73930000Y-35560000D03*
X81550000Y-40005000D03*
X83550000Y-40005000D03*
X81550000Y-28575000D03*
X83550000Y-28575000D03*
D15*
X54927500Y-58467500D03*
X54927500Y-56467500D03*
X66357500Y-58467500D03*
X66357500Y-56467500D03*
X63182500Y-51482500D03*
X63182500Y-49482500D03*
D16*
X89170000Y-30480000D03*
X91170000Y-30480000D03*
D15*
X100330000Y-45450000D03*
X100330000Y-43450000D03*
X108585000Y-44085000D03*
X108585000Y-46085000D03*
X111125000Y-46085000D03*
X111125000Y-44085000D03*
X102870000Y-45450000D03*
X102870000Y-43450000D03*
D16*
X104505000Y-48895000D03*
X102505000Y-48895000D03*
D17*
X32936000Y-34925000D03*
X35136000Y-34925000D03*
X47668000Y-34798000D03*
X49868000Y-34798000D03*
D18*
X40640000Y-66040000D03*
D19*
X45720000Y-66040000D03*
X50800000Y-66040000D03*
D20*
X52324000Y-25400000D03*
D21*
X49784000Y-25400000D03*
D20*
X95300800Y-53543200D03*
D21*
X95300800Y-56083200D03*
X95300800Y-58623200D03*
X95300800Y-61163200D03*
D20*
X116205000Y-45085000D03*
D21*
X116205000Y-47625000D03*
D13*
X59135000Y-35560000D03*
X56435000Y-35560000D03*
X56435000Y-43180000D03*
X59135000Y-43180000D03*
X59135000Y-38100000D03*
X56435000Y-38100000D03*
X56435000Y-40640000D03*
X59135000Y-40640000D03*
X59135000Y-25400000D03*
X56435000Y-25400000D03*
X76280000Y-55245000D03*
X73580000Y-55245000D03*
X73580000Y-57785000D03*
X76280000Y-57785000D03*
X76280000Y-25400000D03*
X73580000Y-25400000D03*
X64215000Y-33020000D03*
X61515000Y-33020000D03*
X76280000Y-52705000D03*
X73580000Y-52705000D03*
X73326000Y-61087000D03*
X76026000Y-61087000D03*
X76280000Y-33020000D03*
X73580000Y-33020000D03*
X83900000Y-50800000D03*
X81200000Y-50800000D03*
X88185000Y-57785000D03*
X90885000Y-57785000D03*
X83900000Y-63500000D03*
X81200000Y-63500000D03*
X73580000Y-30480000D03*
X76280000Y-30480000D03*
X73580000Y-27940000D03*
X76280000Y-27940000D03*
X90885000Y-60325000D03*
X88185000Y-60325000D03*
D22*
X58102500Y-66437500D03*
X58102500Y-63737500D03*
D13*
X75645000Y-38735000D03*
X72945000Y-38735000D03*
X72945000Y-41275000D03*
X75645000Y-41275000D03*
D22*
X55562500Y-63737500D03*
X55562500Y-66437500D03*
D13*
X92155000Y-38735000D03*
X89455000Y-38735000D03*
D22*
X69532500Y-63737500D03*
X69532500Y-66437500D03*
D13*
X92155000Y-41275000D03*
X89455000Y-41275000D03*
X89455000Y-35560000D03*
X92155000Y-35560000D03*
D22*
X65722500Y-49132500D03*
X65722500Y-51832500D03*
X68580000Y-49196000D03*
X68580000Y-51896000D03*
D13*
X89201000Y-33020000D03*
X91901000Y-33020000D03*
D22*
X97155000Y-43735000D03*
X97155000Y-46435000D03*
X106045000Y-43735000D03*
X106045000Y-46435000D03*
X111760000Y-49450000D03*
X111760000Y-52150000D03*
X108585000Y-52150000D03*
X108585000Y-49450000D03*
D13*
X37131000Y-34925000D03*
X39831000Y-34925000D03*
X45546000Y-34798000D03*
X42846000Y-34798000D03*
D23*
X61595000Y-25400000D03*
X64135000Y-27940000D03*
X61595000Y-30480000D03*
X61595000Y-35560000D03*
X64135000Y-38100000D03*
X61595000Y-40640000D03*
X61277500Y-66357500D03*
X63817500Y-63817500D03*
X66357500Y-66357500D03*
X80010000Y-45720000D03*
X82550000Y-43180000D03*
X85090000Y-45720000D03*
D24*
X79850000Y-30480000D03*
X79850000Y-31750000D03*
X79850000Y-33020000D03*
X79850000Y-34290000D03*
X79850000Y-35560000D03*
X79850000Y-36830000D03*
X79850000Y-38100000D03*
X85250000Y-38100000D03*
X85250000Y-36830000D03*
X85250000Y-35560000D03*
X85250000Y-34290000D03*
X85250000Y-33020000D03*
X85250000Y-31750000D03*
X85250000Y-30480000D03*
X79850000Y-53340000D03*
X79850000Y-54610000D03*
X79850000Y-55880000D03*
X79850000Y-57150000D03*
X79850000Y-58420000D03*
X79850000Y-59690000D03*
X79850000Y-60960000D03*
X85250000Y-60960000D03*
X85250000Y-59690000D03*
X85250000Y-58420000D03*
X85250000Y-57150000D03*
X85250000Y-55880000D03*
X85250000Y-54610000D03*
X85250000Y-53340000D03*
D25*
X56832500Y-60167500D03*
X58102500Y-60167500D03*
X59372500Y-60167500D03*
X60642500Y-60167500D03*
X61912500Y-60167500D03*
X63182500Y-60167500D03*
X64452500Y-60167500D03*
X64452500Y-54767500D03*
X63182500Y-54767500D03*
X61912500Y-54767500D03*
X60642500Y-54767500D03*
X59372500Y-54767500D03*
X58102500Y-54767500D03*
X56832500Y-54767500D03*
D26*
X31375000Y-48015000D03*
X35935000Y-48015000D03*
D27*
X33655000Y-41715000D03*
D26*
X45980000Y-48650000D03*
X50540000Y-48650000D03*
D27*
X48260000Y-42350000D03*
D28*
X38608000Y-48448000D03*
X38608000Y-46548000D03*
X43180000Y-48448000D03*
X43180000Y-46548000D03*
X40005000Y-40320000D03*
X40005000Y-38420000D03*
X41910000Y-40320000D03*
X41910000Y-38420000D03*
D29*
X32860000Y-54610000D03*
X38260000Y-54610000D03*
X43020000Y-54610000D03*
X48420000Y-54610000D03*
D14*
X33020000Y-25400000D03*
M02*
