M48
;DRILL file {KiCad 4.0.6} date 07/14/17 14:31:31
;FORMAT={-:-/ absolute / inch / decimal}
FMAT,2
INCH,TZ
T1C0.016
T2C0.020
T3C0.031
T4C0.039
T5C0.060
T6C0.126
%
G90
G05
M72
T1
X1.67Y-1.98
X1.99Y-2.04
X2.452Y-2.556
X2.634Y-1.302
X2.752Y-1.932
X2.788Y-1.722
X2.864Y-1.9
X2.895Y-1.35
X2.942Y-2.406
X2.95Y-2.274
X2.992Y-1.9
X3.08Y-1.26
X3.2Y-2.354
X3.268Y-2.124
X3.284Y-1.256
X3.388Y-1.56
X3.43Y-1.43
X3.43Y-1.555
X3.65Y-2.46
X3.862Y-2.09
X3.898Y-2.244
X4.286Y-1.678
T2
X1.452Y-1.18
X1.575Y-1.3
X1.91Y-2.25
X2.125Y-1.3
X2.15Y-2.375
X2.27Y-2.3
X2.325Y-1.8
X2.39Y-2.3
X2.4Y-2.09
X2.61Y-2.17
X2.71Y-2.34
X3.065Y-1.125
X3.115Y-1.575
X3.165Y-1.09
X3.275Y-2.255
X3.38Y-1.12
X3.42Y-1.35
X3.9Y-1.
X3.9Y-1.05
X3.9Y-1.1
X3.9Y-1.15
X3.9Y-1.2
X3.9Y-1.25
X3.95Y-1.
X3.95Y-1.05
X3.95Y-1.1
X3.95Y-1.15
X3.95Y-1.2
X3.95Y-1.25
X4.Y-1.
X4.Y-1.05
X4.Y-1.1
X4.Y-1.15
X4.Y-1.2
X4.Y-1.25
X4.05Y-1.
X4.05Y-1.05
X4.05Y-1.1
X4.05Y-1.15
X4.05Y-1.2
X4.05Y-1.25
X4.07Y-2.02
X4.1Y-1.
X4.1Y-1.05
X4.1Y-1.1
X4.1Y-1.15
X4.1Y-1.2
X4.1Y-1.25
X4.15Y-1.
X4.15Y-1.05
X4.15Y-1.1
X4.15Y-1.15
X4.15Y-1.2
X4.15Y-1.25
X4.2Y-1.
X4.2Y-1.05
X4.2Y-1.1
X4.2Y-1.15
X4.2Y-1.2
X4.2Y-1.25
X4.34Y-1.88
X4.522Y-1.456
T3
X2.4125Y-2.6125
X2.425Y-1.
X2.425Y-1.2
X2.425Y-1.4
X2.425Y-1.6
X2.5125Y-2.5125
X2.525Y-1.1
X2.525Y-1.5
X2.6125Y-2.6125
X3.15Y-1.8
X3.25Y-1.7
X3.35Y-1.8
T4
X1.96Y-1.
X2.06Y-1.
X3.752Y-2.108
X3.752Y-2.208
X3.752Y-2.308
X3.752Y-2.408
X4.575Y-1.775
X4.575Y-1.875
T5
X1.6Y-2.6
X1.8Y-2.6
X2.Y-2.6
T6
X1.3Y-1.
X1.3Y-2.7
X4.625Y-1.
X4.625Y-2.7
T0
M30
