G04 #@! TF.FileFunction,Copper,L2,Bot,Signal*
%FSLAX46Y46*%
G04 Gerber Fmt 4.6, Leading zero omitted, Abs format (unit mm)*
G04 Created by KiCad (PCBNEW 4.0.6) date 07/14/17 14:36:20*
%MOMM*%
%LPD*%
G01*
G04 APERTURE LIST*
%ADD10C,0.100000*%
%ADD11C,6.400000*%
%ADD12R,3.000000X3.000000*%
%ADD13C,3.000000*%
%ADD14R,1.700000X1.700000*%
%ADD15O,1.700000X1.700000*%
%ADD16C,1.440000*%
%ADD17C,0.762000*%
%ADD18C,0.600000*%
%ADD19C,1.270000*%
%ADD20C,0.762000*%
%ADD21C,0.254000*%
%ADD22C,0.508000*%
%ADD23C,0.250000*%
G04 APERTURE END LIST*
D10*
D11*
X117475000Y-25400000D03*
X117475000Y-68580000D03*
X33020000Y-68580000D03*
D12*
X40640000Y-66040000D03*
D13*
X45720000Y-66040000D03*
X50800000Y-66040000D03*
D14*
X52324000Y-25400000D03*
D15*
X49784000Y-25400000D03*
D14*
X95300800Y-53543200D03*
D15*
X95300800Y-56083200D03*
X95300800Y-58623200D03*
X95300800Y-61163200D03*
D14*
X116205000Y-45085000D03*
D15*
X116205000Y-47625000D03*
D16*
X61595000Y-25400000D03*
X64135000Y-27940000D03*
X61595000Y-30480000D03*
X61595000Y-35560000D03*
X64135000Y-38100000D03*
X61595000Y-40640000D03*
X61277500Y-66357500D03*
X63817500Y-63817500D03*
X66357500Y-66357500D03*
X80010000Y-45720000D03*
X82550000Y-43180000D03*
X85090000Y-45720000D03*
D11*
X33020000Y-25400000D03*
D17*
X114858800Y-36982400D03*
X80391000Y-27686000D03*
X77851000Y-28575000D03*
X110236000Y-47752000D03*
X103378000Y-51308000D03*
X106680000Y-25400000D03*
X105410000Y-25400000D03*
X104140000Y-25400000D03*
X102870000Y-25400000D03*
X101600000Y-25400000D03*
X100330000Y-25400000D03*
X99060000Y-25400000D03*
X106680000Y-26670000D03*
X105410000Y-26670000D03*
X104140000Y-26670000D03*
X102870000Y-26670000D03*
X101600000Y-26670000D03*
X100330000Y-26670000D03*
X99060000Y-26670000D03*
X106680000Y-27940000D03*
X105410000Y-27940000D03*
X104140000Y-27940000D03*
X102870000Y-27940000D03*
X101600000Y-27940000D03*
X100330000Y-27940000D03*
X99060000Y-27940000D03*
X106680000Y-31750000D03*
X106680000Y-30480000D03*
X106680000Y-29210000D03*
X105410000Y-31750000D03*
X105410000Y-30480000D03*
X105410000Y-29210000D03*
X104140000Y-31750000D03*
X104140000Y-30480000D03*
X104140000Y-29210000D03*
X102870000Y-31750000D03*
X102870000Y-30480000D03*
X102870000Y-29210000D03*
X101600000Y-31750000D03*
X101600000Y-30480000D03*
X101600000Y-29210000D03*
X100330000Y-31750000D03*
X100330000Y-30480000D03*
X100330000Y-29210000D03*
X99060000Y-31750000D03*
X99060000Y-30480000D03*
X99060000Y-29210000D03*
X36880800Y-29972000D03*
X48514000Y-57150000D03*
D18*
X83007200Y-53949600D03*
X81280000Y-59791600D03*
X74726800Y-61112400D03*
X74930000Y-57759600D03*
X66903600Y-33070800D03*
X73533000Y-34290000D03*
X78232000Y-32004000D03*
D17*
X79121000Y-40005000D03*
X68834000Y-59436000D03*
X54610000Y-60325000D03*
X53975000Y-33020000D03*
X40005000Y-33020000D03*
X57658000Y-58420000D03*
X60706000Y-58420000D03*
X83185000Y-57277000D03*
X59055000Y-45720000D03*
X85852000Y-28448000D03*
X86868000Y-34290000D03*
X66294000Y-55118000D03*
X60960000Y-53086000D03*
D18*
X69900800Y-49072800D03*
X83413600Y-31902400D03*
X108864400Y-42621200D03*
X70815200Y-43738800D03*
X72745600Y-48260000D03*
X75996800Y-48260000D03*
X98094800Y-53086000D03*
X99009200Y-56997600D03*
X92710000Y-62484000D03*
X62280800Y-64922400D03*
X87122000Y-39497000D03*
X87122000Y-36322000D03*
X86055200Y-39624000D03*
X50546000Y-51816000D03*
X42418000Y-50292000D03*
D19*
X40640000Y-66040000D02*
X40640000Y-68580000D01*
X119888000Y-42011600D02*
X114858800Y-36982400D01*
X119888000Y-52984400D02*
X119888000Y-42011600D01*
X115570000Y-57302400D02*
X119888000Y-52984400D01*
X113538000Y-57302400D02*
X115570000Y-57302400D01*
X107950000Y-62890400D02*
X113538000Y-57302400D01*
X107950000Y-66954400D02*
X107950000Y-62890400D01*
X103174800Y-71729600D02*
X107950000Y-66954400D01*
X43789600Y-71729600D02*
X103174800Y-71729600D01*
X40640000Y-68580000D02*
X43789600Y-71729600D01*
D20*
X45720000Y-66040000D02*
X45720000Y-63754000D01*
X39116000Y-25400000D02*
X49784000Y-25400000D01*
X32461200Y-32054800D02*
X39116000Y-25400000D01*
X32461200Y-59232800D02*
X32461200Y-32054800D01*
X33121600Y-59893200D02*
X32461200Y-59232800D01*
X41859200Y-59893200D02*
X33121600Y-59893200D01*
X45720000Y-63754000D02*
X41859200Y-59893200D01*
D21*
X78740000Y-27686000D02*
X80391000Y-27686000D01*
X77851000Y-28575000D02*
X78740000Y-27686000D01*
D20*
X110236000Y-47752000D02*
X106680000Y-51308000D01*
X106680000Y-51308000D02*
X103378000Y-51308000D01*
D19*
X40894000Y-57150000D02*
X48514000Y-57150000D01*
X35560000Y-51816000D02*
X40894000Y-57150000D01*
X35560000Y-31292800D02*
X35560000Y-51816000D01*
X36880800Y-29972000D02*
X35560000Y-31292800D01*
X50800000Y-66040000D02*
X50800000Y-59436000D01*
X50800000Y-59436000D02*
X48514000Y-57150000D01*
D21*
X83413600Y-53543200D02*
X95300800Y-53543200D01*
X83007200Y-53949600D02*
X83413600Y-53543200D01*
X82651600Y-61163200D02*
X95300800Y-61163200D01*
X81280000Y-59791600D02*
X82651600Y-61163200D01*
X74726800Y-57962800D02*
X74726800Y-61112400D01*
X74930000Y-57759600D02*
X74726800Y-57962800D01*
X73533000Y-34290000D02*
X68122800Y-34290000D01*
X68122800Y-34290000D02*
X66903600Y-33070800D01*
X75565000Y-32258000D02*
X73533000Y-34290000D01*
X77978000Y-32258000D02*
X75565000Y-32258000D01*
X78232000Y-32004000D02*
X77978000Y-32258000D01*
D22*
X55499000Y-34544000D02*
X53975000Y-33020000D01*
X55499000Y-37846000D02*
X55499000Y-34544000D01*
X59817000Y-42164000D02*
X55499000Y-37846000D01*
X76962000Y-42164000D02*
X59817000Y-42164000D01*
X79121000Y-40005000D02*
X76962000Y-42164000D01*
X67818000Y-58420000D02*
X60706000Y-58420000D01*
X68834000Y-59436000D02*
X67818000Y-58420000D01*
X54610000Y-60325000D02*
X53975000Y-59690000D01*
X53975000Y-59690000D02*
X53975000Y-33020000D01*
X53975000Y-33020000D02*
X40005000Y-33020000D01*
X60706000Y-58420000D02*
X57658000Y-58420000D01*
X86868000Y-34290000D02*
X88239600Y-34290000D01*
X97942400Y-56083200D02*
X95300800Y-56083200D01*
X99314000Y-54711600D02*
X97942400Y-56083200D01*
X99314000Y-51714400D02*
X99314000Y-54711600D01*
X97434400Y-49834800D02*
X99314000Y-51714400D01*
X96266000Y-49834800D02*
X97434400Y-49834800D01*
X91389200Y-44958000D02*
X96266000Y-49834800D01*
X91389200Y-37439600D02*
X91389200Y-44958000D01*
X88239600Y-34290000D02*
X91389200Y-37439600D01*
D21*
X83185000Y-57277000D02*
X94107000Y-57277000D01*
X94107000Y-57277000D02*
X95300800Y-56083200D01*
D22*
X66421000Y-55245000D02*
X66294000Y-55118000D01*
X81153000Y-55245000D02*
X66421000Y-55245000D01*
X83185000Y-57277000D02*
X81153000Y-55245000D01*
X60960000Y-53086000D02*
X60960000Y-47625000D01*
X60960000Y-47625000D02*
X59055000Y-45720000D01*
X86106000Y-28448000D02*
X85852000Y-28448000D01*
X86868000Y-29210000D02*
X86106000Y-28448000D01*
X86868000Y-34290000D02*
X86868000Y-29210000D01*
X66294000Y-53594000D02*
X66294000Y-55118000D01*
X65786000Y-53086000D02*
X66294000Y-53594000D01*
X60960000Y-53086000D02*
X65786000Y-53086000D01*
D21*
X73304400Y-49072800D02*
X69900800Y-49072800D01*
X80822800Y-41554400D02*
X73304400Y-49072800D01*
X80822800Y-34493200D02*
X80822800Y-41554400D01*
X83413600Y-31902400D02*
X80822800Y-34493200D01*
D20*
X113538000Y-42418000D02*
X116205000Y-45085000D01*
X109067600Y-42418000D02*
X113538000Y-42418000D01*
X108864400Y-42621200D02*
X109067600Y-42418000D01*
D21*
X92710000Y-62484000D02*
X92760800Y-62484000D01*
X70815200Y-46329600D02*
X70815200Y-43738800D01*
X72745600Y-48260000D02*
X70815200Y-46329600D01*
X93268800Y-48260000D02*
X75996800Y-48260000D01*
X98094800Y-53086000D02*
X93268800Y-48260000D01*
X99009200Y-63093600D02*
X99009200Y-56997600D01*
X98044000Y-64058800D02*
X99009200Y-63093600D01*
X94335600Y-64058800D02*
X98044000Y-64058800D01*
X92760800Y-62484000D02*
X94335600Y-64058800D01*
X90474800Y-64719200D02*
X92710000Y-62484000D01*
X65735200Y-64719200D02*
X90474800Y-64719200D01*
X65328800Y-65125600D02*
X65735200Y-64719200D01*
X62484000Y-65125600D02*
X65328800Y-65125600D01*
X62280800Y-64922400D02*
X62484000Y-65125600D01*
X87122000Y-36322000D02*
X87122000Y-39497000D01*
X86055200Y-39624000D02*
X82550000Y-43129200D01*
X82550000Y-43129200D02*
X82550000Y-43180000D01*
D20*
X43942000Y-51816000D02*
X50546000Y-51816000D01*
X42418000Y-50292000D02*
X43942000Y-51816000D01*
D23*
G36*
X110365000Y-33276000D02*
X95375000Y-33276000D01*
X95375000Y-21520000D01*
X110365000Y-21520000D01*
X110365000Y-33276000D01*
X110365000Y-33276000D01*
G37*
X110365000Y-33276000D02*
X95375000Y-33276000D01*
X95375000Y-21520000D01*
X110365000Y-21520000D01*
X110365000Y-33276000D01*
M02*
