G04 #@! TF.FileFunction,Copper,L1,Top,Signal*
%FSLAX46Y46*%
G04 Gerber Fmt 4.6, Leading zero omitted, Abs format (unit mm)*
G04 Created by KiCad (PCBNEW 4.0.6) date 07/14/17 14:36:20*
%MOMM*%
%LPD*%
G01*
G04 APERTURE LIST*
%ADD10C,0.100000*%
%ADD11R,1.100000X4.600000*%
%ADD12R,10.800000X9.400000*%
%ADD13R,5.250000X4.550000*%
%ADD14R,1.500000X1.300000*%
%ADD15C,6.400000*%
%ADD16R,1.250000X1.000000*%
%ADD17R,1.000000X1.250000*%
%ADD18R,1.200000X0.900000*%
%ADD19R,3.000000X3.000000*%
%ADD20C,3.000000*%
%ADD21R,1.700000X1.700000*%
%ADD22O,1.700000X1.700000*%
%ADD23R,1.300000X1.500000*%
%ADD24C,1.440000*%
%ADD25R,1.500000X0.600000*%
%ADD26R,0.600000X1.500000*%
%ADD27R,1.200000X2.200000*%
%ADD28R,5.800000X6.400000*%
%ADD29R,2.750000X3.050000*%
%ADD30R,1.300000X0.700000*%
%ADD31R,3.500000X1.600000*%
%ADD32C,0.762000*%
%ADD33C,0.600000*%
%ADD34C,1.270000*%
%ADD35C,0.762000*%
%ADD36C,0.254000*%
%ADD37C,0.508000*%
%ADD38C,0.250000*%
G04 APERTURE END LIST*
D10*
D11*
X99470000Y-36890000D03*
X101170000Y-36890000D03*
X102870000Y-36890000D03*
X104570000Y-36890000D03*
X106270000Y-36890000D03*
D12*
X102870000Y-27740000D03*
D13*
X105645000Y-25315000D03*
X100095000Y-30165000D03*
X100095000Y-25315000D03*
X105645000Y-30165000D03*
D14*
X92155000Y-27940000D03*
X89455000Y-27940000D03*
D15*
X117475000Y-25400000D03*
X117475000Y-68580000D03*
X33020000Y-68580000D03*
D16*
X66802000Y-38084000D03*
X66802000Y-36084000D03*
D17*
X75930000Y-50165000D03*
X73930000Y-50165000D03*
X73676000Y-63246000D03*
X75676000Y-63246000D03*
D16*
X40005000Y-42180000D03*
X40005000Y-44180000D03*
X41910000Y-44180000D03*
X41910000Y-42180000D03*
D17*
X75930000Y-35560000D03*
X73930000Y-35560000D03*
X81550000Y-40005000D03*
X83550000Y-40005000D03*
X81550000Y-28575000D03*
X83550000Y-28575000D03*
D16*
X54927500Y-58467500D03*
X54927500Y-56467500D03*
X66357500Y-58467500D03*
X66357500Y-56467500D03*
X63182500Y-51482500D03*
X63182500Y-49482500D03*
D17*
X89170000Y-30480000D03*
X91170000Y-30480000D03*
D16*
X100330000Y-45450000D03*
X100330000Y-43450000D03*
X108585000Y-44085000D03*
X108585000Y-46085000D03*
X111125000Y-46085000D03*
X111125000Y-44085000D03*
X102870000Y-45450000D03*
X102870000Y-43450000D03*
D17*
X104505000Y-48895000D03*
X102505000Y-48895000D03*
D18*
X32936000Y-34925000D03*
X35136000Y-34925000D03*
X47668000Y-34798000D03*
X49868000Y-34798000D03*
D19*
X40640000Y-66040000D03*
D20*
X45720000Y-66040000D03*
X50800000Y-66040000D03*
D21*
X52324000Y-25400000D03*
D22*
X49784000Y-25400000D03*
D21*
X95300800Y-53543200D03*
D22*
X95300800Y-56083200D03*
X95300800Y-58623200D03*
X95300800Y-61163200D03*
D21*
X116205000Y-45085000D03*
D22*
X116205000Y-47625000D03*
D14*
X59135000Y-35560000D03*
X56435000Y-35560000D03*
X56435000Y-43180000D03*
X59135000Y-43180000D03*
X59135000Y-38100000D03*
X56435000Y-38100000D03*
X56435000Y-40640000D03*
X59135000Y-40640000D03*
X59135000Y-25400000D03*
X56435000Y-25400000D03*
X76280000Y-55245000D03*
X73580000Y-55245000D03*
X73580000Y-57785000D03*
X76280000Y-57785000D03*
X76280000Y-25400000D03*
X73580000Y-25400000D03*
X64215000Y-33020000D03*
X61515000Y-33020000D03*
X76280000Y-52705000D03*
X73580000Y-52705000D03*
X73326000Y-61087000D03*
X76026000Y-61087000D03*
X76280000Y-33020000D03*
X73580000Y-33020000D03*
X83900000Y-50800000D03*
X81200000Y-50800000D03*
X88185000Y-57785000D03*
X90885000Y-57785000D03*
X83900000Y-63500000D03*
X81200000Y-63500000D03*
X73580000Y-30480000D03*
X76280000Y-30480000D03*
X73580000Y-27940000D03*
X76280000Y-27940000D03*
X90885000Y-60325000D03*
X88185000Y-60325000D03*
D23*
X58102500Y-66437500D03*
X58102500Y-63737500D03*
D14*
X75645000Y-38735000D03*
X72945000Y-38735000D03*
X72945000Y-41275000D03*
X75645000Y-41275000D03*
D23*
X55562500Y-63737500D03*
X55562500Y-66437500D03*
D14*
X92155000Y-38735000D03*
X89455000Y-38735000D03*
D23*
X69532500Y-63737500D03*
X69532500Y-66437500D03*
D14*
X92155000Y-41275000D03*
X89455000Y-41275000D03*
X89455000Y-35560000D03*
X92155000Y-35560000D03*
D23*
X65722500Y-49132500D03*
X65722500Y-51832500D03*
X68580000Y-49196000D03*
X68580000Y-51896000D03*
D14*
X89201000Y-33020000D03*
X91901000Y-33020000D03*
D23*
X97155000Y-43735000D03*
X97155000Y-46435000D03*
X106045000Y-43735000D03*
X106045000Y-46435000D03*
X111760000Y-49450000D03*
X111760000Y-52150000D03*
X108585000Y-52150000D03*
X108585000Y-49450000D03*
D14*
X37131000Y-34925000D03*
X39831000Y-34925000D03*
X45546000Y-34798000D03*
X42846000Y-34798000D03*
D24*
X61595000Y-25400000D03*
X64135000Y-27940000D03*
X61595000Y-30480000D03*
X61595000Y-35560000D03*
X64135000Y-38100000D03*
X61595000Y-40640000D03*
X61277500Y-66357500D03*
X63817500Y-63817500D03*
X66357500Y-66357500D03*
X80010000Y-45720000D03*
X82550000Y-43180000D03*
X85090000Y-45720000D03*
D25*
X79850000Y-30480000D03*
X79850000Y-31750000D03*
X79850000Y-33020000D03*
X79850000Y-34290000D03*
X79850000Y-35560000D03*
X79850000Y-36830000D03*
X79850000Y-38100000D03*
X85250000Y-38100000D03*
X85250000Y-36830000D03*
X85250000Y-35560000D03*
X85250000Y-34290000D03*
X85250000Y-33020000D03*
X85250000Y-31750000D03*
X85250000Y-30480000D03*
X79850000Y-53340000D03*
X79850000Y-54610000D03*
X79850000Y-55880000D03*
X79850000Y-57150000D03*
X79850000Y-58420000D03*
X79850000Y-59690000D03*
X79850000Y-60960000D03*
X85250000Y-60960000D03*
X85250000Y-59690000D03*
X85250000Y-58420000D03*
X85250000Y-57150000D03*
X85250000Y-55880000D03*
X85250000Y-54610000D03*
X85250000Y-53340000D03*
D26*
X56832500Y-60167500D03*
X58102500Y-60167500D03*
X59372500Y-60167500D03*
X60642500Y-60167500D03*
X61912500Y-60167500D03*
X63182500Y-60167500D03*
X64452500Y-60167500D03*
X64452500Y-54767500D03*
X63182500Y-54767500D03*
X61912500Y-54767500D03*
X60642500Y-54767500D03*
X59372500Y-54767500D03*
X58102500Y-54767500D03*
X56832500Y-54767500D03*
D27*
X31375000Y-48015000D03*
X35935000Y-48015000D03*
D28*
X33655000Y-41715000D03*
D29*
X35180000Y-40040000D03*
X32130000Y-43390000D03*
X32130000Y-40040000D03*
X35180000Y-43390000D03*
D27*
X45980000Y-48650000D03*
X50540000Y-48650000D03*
D28*
X48260000Y-42350000D03*
D29*
X49785000Y-40675000D03*
X46735000Y-44025000D03*
X46735000Y-40675000D03*
X49785000Y-44025000D03*
D30*
X38608000Y-48448000D03*
X38608000Y-46548000D03*
X43180000Y-48448000D03*
X43180000Y-46548000D03*
X40005000Y-40320000D03*
X40005000Y-38420000D03*
X41910000Y-40320000D03*
X41910000Y-38420000D03*
D31*
X32860000Y-54610000D03*
X38260000Y-54610000D03*
X43020000Y-54610000D03*
X48420000Y-54610000D03*
D15*
X33020000Y-25400000D03*
D32*
X114858800Y-36982400D03*
X80391000Y-27686000D03*
X77851000Y-28575000D03*
X110236000Y-47752000D03*
X103378000Y-51308000D03*
X106680000Y-25400000D03*
X105410000Y-25400000D03*
X104140000Y-25400000D03*
X102870000Y-25400000D03*
X101600000Y-25400000D03*
X100330000Y-25400000D03*
X99060000Y-25400000D03*
X106680000Y-26670000D03*
X105410000Y-26670000D03*
X104140000Y-26670000D03*
X102870000Y-26670000D03*
X101600000Y-26670000D03*
X100330000Y-26670000D03*
X99060000Y-26670000D03*
X106680000Y-27940000D03*
X105410000Y-27940000D03*
X104140000Y-27940000D03*
X102870000Y-27940000D03*
X101600000Y-27940000D03*
X100330000Y-27940000D03*
X99060000Y-27940000D03*
X106680000Y-31750000D03*
X106680000Y-30480000D03*
X106680000Y-29210000D03*
X105410000Y-31750000D03*
X105410000Y-30480000D03*
X105410000Y-29210000D03*
X104140000Y-31750000D03*
X104140000Y-30480000D03*
X104140000Y-29210000D03*
X102870000Y-31750000D03*
X102870000Y-30480000D03*
X102870000Y-29210000D03*
X101600000Y-31750000D03*
X101600000Y-30480000D03*
X101600000Y-29210000D03*
X100330000Y-31750000D03*
X100330000Y-30480000D03*
X100330000Y-29210000D03*
X99060000Y-31750000D03*
X99060000Y-30480000D03*
X99060000Y-29210000D03*
X36880800Y-29972000D03*
X48514000Y-57150000D03*
D33*
X83007200Y-53949600D03*
X81280000Y-59791600D03*
X74726800Y-61112400D03*
X74930000Y-57759600D03*
X66903600Y-33070800D03*
X73533000Y-34290000D03*
X78232000Y-32004000D03*
D32*
X79121000Y-40005000D03*
X68834000Y-59436000D03*
X54610000Y-60325000D03*
X53975000Y-33020000D03*
X40005000Y-33020000D03*
X57658000Y-58420000D03*
X60706000Y-58420000D03*
X83185000Y-57277000D03*
X59055000Y-45720000D03*
X85852000Y-28448000D03*
X86868000Y-34290000D03*
X66294000Y-55118000D03*
X60960000Y-53086000D03*
D33*
X69900800Y-49072800D03*
X83413600Y-31902400D03*
X108864400Y-42621200D03*
X70815200Y-43738800D03*
X72745600Y-48260000D03*
X75996800Y-48260000D03*
X98094800Y-53086000D03*
X99009200Y-56997600D03*
X92710000Y-62484000D03*
X62280800Y-64922400D03*
X87122000Y-39497000D03*
X87122000Y-36322000D03*
X86055200Y-39624000D03*
X50546000Y-51816000D03*
X42418000Y-50292000D03*
D34*
X114766400Y-36890000D02*
X106270000Y-36890000D01*
X114858800Y-36982400D02*
X114766400Y-36890000D01*
D35*
X106270000Y-36890000D02*
X106270000Y-39163200D01*
X106270000Y-39163200D02*
X108000800Y-40894000D01*
X108000800Y-40894000D02*
X109829600Y-40894000D01*
X109829600Y-40894000D02*
X111125000Y-42189400D01*
X111125000Y-42189400D02*
X111125000Y-44085000D01*
D34*
X40640000Y-66040000D02*
X40640000Y-65786000D01*
X40640000Y-65786000D02*
X32860000Y-58006000D01*
X32860000Y-58006000D02*
X32860000Y-54610000D01*
D35*
X32860000Y-54610000D02*
X32860000Y-53180000D01*
X31375000Y-51695000D02*
X31375000Y-48015000D01*
X32860000Y-53180000D02*
X31375000Y-51695000D01*
D36*
X40640000Y-66040000D02*
X40132000Y-66040000D01*
D37*
X61595000Y-30480000D02*
X67056000Y-30480000D01*
X68453000Y-34433000D02*
X66802000Y-36084000D01*
X68453000Y-31877000D02*
X68453000Y-34433000D01*
X67056000Y-30480000D02*
X68453000Y-31877000D01*
D36*
X66357500Y-66357500D02*
X66357500Y-58467500D01*
D34*
X95300800Y-58623200D02*
X101447600Y-58623200D01*
X101447600Y-58623200D02*
X102505000Y-57565800D01*
D35*
X32936000Y-34925000D02*
X32936000Y-40996000D01*
X32936000Y-40996000D02*
X33655000Y-41715000D01*
D36*
X76280000Y-27940000D02*
X77216000Y-27940000D01*
X80391000Y-27686000D02*
X81280000Y-28575000D01*
X77216000Y-27940000D02*
X77851000Y-28575000D01*
X81280000Y-28575000D02*
X81550000Y-28575000D01*
D37*
X79850000Y-33020000D02*
X81153000Y-33020000D01*
X82296000Y-29321000D02*
X81550000Y-28575000D01*
X82296000Y-31877000D02*
X82296000Y-29321000D01*
X81153000Y-33020000D02*
X82296000Y-31877000D01*
D36*
X73580000Y-56515000D02*
X77851000Y-56515000D01*
X78486000Y-55880000D02*
X79850000Y-55880000D01*
X77851000Y-56515000D02*
X78486000Y-55880000D01*
D37*
X49868000Y-34798000D02*
X49868000Y-25484000D01*
X49868000Y-25484000D02*
X49784000Y-25400000D01*
X56435000Y-38100000D02*
X57785000Y-38100000D01*
X60325000Y-30480000D02*
X61595000Y-30480000D01*
X57785000Y-33020000D02*
X60325000Y-30480000D01*
X57785000Y-38100000D02*
X57785000Y-33020000D01*
X49868000Y-34798000D02*
X50038000Y-34798000D01*
X50038000Y-34798000D02*
X53340000Y-38100000D01*
X53340000Y-38100000D02*
X56435000Y-38100000D01*
X56435000Y-38100000D02*
X56435000Y-40640000D01*
D34*
X45720000Y-66040000D02*
X45720000Y-69850000D01*
X102505000Y-68183000D02*
X102505000Y-57565800D01*
X102505000Y-57565800D02*
X102505000Y-48895000D01*
X99568000Y-71120000D02*
X102505000Y-68183000D01*
X46990000Y-71120000D02*
X99568000Y-71120000D01*
X45720000Y-69850000D02*
X46990000Y-71120000D01*
D35*
X111125000Y-46085000D02*
X111125000Y-46863000D01*
X111125000Y-46863000D02*
X110236000Y-47752000D01*
X103378000Y-51308000D02*
X102505000Y-50435000D01*
X102505000Y-50435000D02*
X102505000Y-48895000D01*
X45720000Y-66040000D02*
X45720000Y-62992000D01*
X82804000Y-48006000D02*
X85090000Y-45720000D01*
X78232000Y-48006000D02*
X82804000Y-48006000D01*
X76454000Y-46228000D02*
X78232000Y-48006000D01*
X61468000Y-46228000D02*
X76454000Y-46228000D01*
X52832000Y-54864000D02*
X61468000Y-46228000D01*
X52832000Y-55880000D02*
X52832000Y-54864000D01*
X45720000Y-62992000D02*
X52832000Y-55880000D01*
X85090000Y-45720000D02*
X85090000Y-41545000D01*
X85090000Y-41545000D02*
X83550000Y-40005000D01*
X54927500Y-56467500D02*
X54784500Y-56467500D01*
X54784500Y-56467500D02*
X48260000Y-62992000D01*
X48260000Y-64516000D02*
X46736000Y-66040000D01*
X48260000Y-62992000D02*
X48260000Y-64516000D01*
X46736000Y-66040000D02*
X45720000Y-66040000D01*
D37*
X79850000Y-58420000D02*
X81534000Y-58420000D01*
X48768000Y-69088000D02*
X45720000Y-66040000D01*
X78486000Y-69088000D02*
X48768000Y-69088000D01*
X82550000Y-65024000D02*
X78486000Y-69088000D01*
X82550000Y-59436000D02*
X82550000Y-65024000D01*
X81534000Y-58420000D02*
X82550000Y-59436000D01*
X66357500Y-58467500D02*
X63293500Y-58467500D01*
X61912500Y-57086500D02*
X61912500Y-54767500D01*
X63293500Y-58467500D02*
X61912500Y-57086500D01*
X111760000Y-49450000D02*
X111760000Y-48514000D01*
X111125000Y-47879000D02*
X111125000Y-46085000D01*
X111760000Y-48514000D02*
X111125000Y-47879000D01*
X102505000Y-48895000D02*
X102505000Y-47609000D01*
X102870000Y-47244000D02*
X102870000Y-45450000D01*
X102505000Y-47609000D02*
X102870000Y-47244000D01*
X83550000Y-40005000D02*
X83550000Y-36084000D01*
X83550000Y-36084000D02*
X84074000Y-35560000D01*
X85250000Y-35560000D02*
X84074000Y-35560000D01*
X84328000Y-33020000D02*
X85250000Y-33020000D01*
X83820000Y-33528000D02*
X84328000Y-33020000D01*
X83820000Y-35306000D02*
X83820000Y-33528000D01*
X84074000Y-35560000D02*
X83820000Y-35306000D01*
X79850000Y-33020000D02*
X85250000Y-33020000D01*
X90885000Y-57785000D02*
X90885000Y-56849000D01*
X89916000Y-55880000D02*
X85250000Y-55880000D01*
X90885000Y-56849000D02*
X89916000Y-55880000D01*
X79850000Y-58420000D02*
X81280000Y-58420000D01*
X81280000Y-58420000D02*
X81534000Y-58166000D01*
X81534000Y-58166000D02*
X81534000Y-56642000D01*
X81534000Y-56642000D02*
X80772000Y-55880000D01*
X80772000Y-55880000D02*
X79850000Y-55880000D01*
X79850000Y-55880000D02*
X85250000Y-55880000D01*
X85250000Y-54610000D02*
X85250000Y-55880000D01*
X73580000Y-55245000D02*
X73580000Y-56515000D01*
X73580000Y-56515000D02*
X73580000Y-57785000D01*
X59372500Y-60167500D02*
X59372500Y-58007500D01*
X59372500Y-58007500D02*
X57832500Y-56467500D01*
X59372500Y-54767500D02*
X59372500Y-56070500D01*
X61912500Y-55943500D02*
X61912500Y-54767500D01*
X61468000Y-56388000D02*
X61912500Y-55943500D01*
X59690000Y-56388000D02*
X61468000Y-56388000D01*
X59372500Y-56070500D02*
X59690000Y-56388000D01*
X54927500Y-56467500D02*
X57832500Y-56467500D01*
X58102500Y-56197500D02*
X58102500Y-54767500D01*
X57832500Y-56467500D02*
X58102500Y-56197500D01*
X58102500Y-54767500D02*
X59372500Y-54767500D01*
D35*
X40005000Y-44180000D02*
X40005000Y-45085000D01*
X40640000Y-45720000D02*
X40640000Y-54610000D01*
X40005000Y-45085000D02*
X40640000Y-45720000D01*
X41910000Y-44180000D02*
X40005000Y-44180000D01*
D36*
X41910000Y-44180000D02*
X42402000Y-44180000D01*
X45980000Y-47758000D02*
X45980000Y-48650000D01*
X32936000Y-40996000D02*
X33655000Y-41715000D01*
D34*
X33655000Y-41715000D02*
X33655000Y-50165000D01*
X33655000Y-50165000D02*
X38100000Y-54610000D01*
X38100000Y-54610000D02*
X38260000Y-54610000D01*
X45980000Y-48650000D02*
X45980000Y-49524000D01*
X45980000Y-49524000D02*
X43020000Y-52484000D01*
X43020000Y-52484000D02*
X43020000Y-54610000D01*
X45720000Y-66040000D02*
X45720000Y-63754000D01*
X45720000Y-63754000D02*
X40640000Y-58674000D01*
X40640000Y-58674000D02*
X40640000Y-54610000D01*
X38260000Y-54610000D02*
X40640000Y-54610000D01*
X40640000Y-54610000D02*
X43020000Y-54610000D01*
D35*
X106680000Y-25400000D02*
X104340000Y-27740000D01*
X104340000Y-27740000D02*
X102870000Y-27740000D01*
X105410000Y-25400000D02*
X103070000Y-27740000D01*
X103070000Y-27740000D02*
X102870000Y-27740000D01*
X104140000Y-25400000D02*
X102870000Y-26670000D01*
X102870000Y-26670000D02*
X102870000Y-27740000D01*
X102870000Y-25400000D02*
X102870000Y-27740000D01*
X101600000Y-25400000D02*
X102870000Y-26670000D01*
X102870000Y-26670000D02*
X102870000Y-27740000D01*
X100330000Y-25400000D02*
X102670000Y-27740000D01*
X102670000Y-27740000D02*
X102870000Y-27740000D01*
X99060000Y-25400000D02*
X101400000Y-27740000D01*
X101400000Y-27740000D02*
X102870000Y-27740000D01*
X106680000Y-26670000D02*
X105610000Y-27740000D01*
X105610000Y-27740000D02*
X102870000Y-27740000D01*
X105410000Y-26670000D02*
X104340000Y-27740000D01*
X104340000Y-27740000D02*
X102870000Y-27740000D01*
X104140000Y-26670000D02*
X103070000Y-27740000D01*
X103070000Y-27740000D02*
X102870000Y-27740000D01*
X102870000Y-26670000D02*
X102870000Y-27740000D01*
X101600000Y-26670000D02*
X102670000Y-27740000D01*
X102670000Y-27740000D02*
X102870000Y-27740000D01*
X100330000Y-26670000D02*
X101400000Y-27740000D01*
X101400000Y-27740000D02*
X102870000Y-27740000D01*
X99060000Y-26670000D02*
X100130000Y-27740000D01*
X100130000Y-27740000D02*
X102870000Y-27740000D01*
X106680000Y-27940000D02*
X106480000Y-27740000D01*
X106480000Y-27740000D02*
X102870000Y-27740000D01*
X105410000Y-27940000D02*
X105210000Y-27740000D01*
X105210000Y-27740000D02*
X102870000Y-27740000D01*
X104140000Y-27940000D02*
X103940000Y-27740000D01*
X103940000Y-27740000D02*
X102870000Y-27740000D01*
X102870000Y-27940000D02*
X102870000Y-27740000D01*
X101600000Y-27940000D02*
X101800000Y-27740000D01*
X101800000Y-27740000D02*
X102870000Y-27740000D01*
X100330000Y-27940000D02*
X100530000Y-27740000D01*
X100530000Y-27740000D02*
X102870000Y-27740000D01*
X99060000Y-27940000D02*
X99260000Y-27740000D01*
X99260000Y-27740000D02*
X102870000Y-27740000D01*
X97790000Y-27940000D02*
X97990000Y-27740000D01*
X97990000Y-27740000D02*
X102870000Y-27740000D01*
X106680000Y-31750000D02*
X102870000Y-27940000D01*
X106680000Y-30480000D02*
X103940000Y-27740000D01*
X103940000Y-27740000D02*
X102870000Y-27740000D01*
X106680000Y-29210000D02*
X105210000Y-27740000D01*
X105210000Y-27740000D02*
X102870000Y-27740000D01*
X106480000Y-27740000D02*
X102870000Y-27740000D01*
X105610000Y-27740000D02*
X102870000Y-27740000D01*
X104340000Y-27740000D02*
X102870000Y-27740000D01*
X106680000Y-24130000D02*
X103070000Y-27740000D01*
X103070000Y-27740000D02*
X102870000Y-27740000D01*
X105410000Y-31750000D02*
X102870000Y-29210000D01*
X102870000Y-29210000D02*
X102870000Y-27740000D01*
X105410000Y-30480000D02*
X102870000Y-27940000D01*
X102870000Y-27940000D02*
X102870000Y-27740000D01*
X105410000Y-29210000D02*
X103940000Y-27740000D01*
X103940000Y-27740000D02*
X102870000Y-27740000D01*
X105210000Y-27740000D02*
X102870000Y-27740000D01*
X104340000Y-27740000D02*
X102870000Y-27740000D01*
X103070000Y-27740000D02*
X102870000Y-27740000D01*
X105410000Y-24130000D02*
X102870000Y-26670000D01*
X104140000Y-31750000D02*
X102870000Y-30480000D01*
X102870000Y-30480000D02*
X102870000Y-27740000D01*
X104140000Y-30480000D02*
X102870000Y-29210000D01*
X102870000Y-29210000D02*
X102870000Y-27740000D01*
X104140000Y-29210000D02*
X102870000Y-27940000D01*
X102870000Y-27940000D02*
X102870000Y-27740000D01*
X103940000Y-27740000D02*
X102870000Y-27740000D01*
X103070000Y-27740000D02*
X102870000Y-27740000D01*
X102870000Y-26670000D02*
X102870000Y-27740000D01*
X104140000Y-24130000D02*
X102870000Y-25400000D01*
X102870000Y-31750000D02*
X102870000Y-27740000D01*
X102870000Y-30480000D02*
X102870000Y-27740000D01*
X102870000Y-29210000D02*
X102870000Y-27740000D01*
X102870000Y-27940000D02*
X102870000Y-27740000D01*
X102870000Y-26670000D02*
X102870000Y-27740000D01*
X102870000Y-25400000D02*
X102870000Y-27740000D01*
X102870000Y-24130000D02*
X102870000Y-27740000D01*
X101600000Y-31750000D02*
X102870000Y-30480000D01*
X101600000Y-30480000D02*
X102870000Y-29210000D01*
X101600000Y-29210000D02*
X102870000Y-27940000D01*
X101800000Y-27740000D02*
X102870000Y-27740000D01*
X102670000Y-27740000D02*
X102870000Y-27740000D01*
X101600000Y-24130000D02*
X102870000Y-25400000D01*
X100330000Y-31750000D02*
X102870000Y-29210000D01*
X102870000Y-29210000D02*
X102870000Y-27740000D01*
X100330000Y-30480000D02*
X102870000Y-27940000D01*
X102870000Y-27940000D02*
X102870000Y-27740000D01*
X100330000Y-29210000D02*
X101800000Y-27740000D01*
X101800000Y-27740000D02*
X102870000Y-27740000D01*
X100530000Y-27740000D02*
X102870000Y-27740000D01*
X101400000Y-27740000D02*
X102870000Y-27740000D01*
X102670000Y-27740000D02*
X102870000Y-27740000D01*
X100330000Y-24130000D02*
X102870000Y-26670000D01*
X102870000Y-26670000D02*
X102870000Y-27740000D01*
X99060000Y-31750000D02*
X102870000Y-27940000D01*
X102870000Y-27940000D02*
X102870000Y-27740000D01*
X99060000Y-30480000D02*
X101800000Y-27740000D01*
X101800000Y-27740000D02*
X102870000Y-27740000D01*
X99060000Y-29210000D02*
X100530000Y-27740000D01*
X100530000Y-27740000D02*
X102870000Y-27740000D01*
X99260000Y-27740000D02*
X102870000Y-27740000D01*
X100130000Y-27740000D02*
X102870000Y-27740000D01*
X101400000Y-27740000D02*
X102870000Y-27740000D01*
X99060000Y-24130000D02*
X102670000Y-27740000D01*
X102670000Y-27740000D02*
X102870000Y-27740000D01*
X97790000Y-31750000D02*
X101800000Y-27740000D01*
X101800000Y-27740000D02*
X102870000Y-27740000D01*
X97790000Y-30480000D02*
X100530000Y-27740000D01*
X100530000Y-27740000D02*
X102870000Y-27740000D01*
X97790000Y-29210000D02*
X99260000Y-27740000D01*
X99260000Y-27740000D02*
X102870000Y-27740000D01*
X97990000Y-27740000D02*
X102870000Y-27740000D01*
X98860000Y-27740000D02*
X102870000Y-27740000D01*
X100130000Y-27740000D02*
X102870000Y-27740000D01*
X97790000Y-24130000D02*
X101400000Y-27740000D01*
X101400000Y-27740000D02*
X102870000Y-27740000D01*
D34*
X102870000Y-27740000D02*
X100739600Y-27740000D01*
X100739600Y-27740000D02*
X96824800Y-23825200D01*
X96824800Y-23825200D02*
X96189800Y-23190200D01*
X96189800Y-23190200D02*
X95300800Y-22301200D01*
X39878000Y-29972000D02*
X36880800Y-29972000D01*
X47548800Y-22301200D02*
X39878000Y-29972000D01*
X95300800Y-22301200D02*
X47548800Y-22301200D01*
D35*
X102870000Y-36890000D02*
X102870000Y-33020000D01*
X102870000Y-33020000D02*
X102870000Y-27740000D01*
X102870000Y-43450000D02*
X102870000Y-36890000D01*
D34*
X48420000Y-57056000D02*
X48420000Y-54610000D01*
X48514000Y-57150000D02*
X48420000Y-57056000D01*
D35*
X48420000Y-54610000D02*
X48420000Y-42510000D01*
X48420000Y-42510000D02*
X48260000Y-42350000D01*
D36*
X64135000Y-38100000D02*
X66786000Y-38100000D01*
X66786000Y-38100000D02*
X66802000Y-38084000D01*
X64135000Y-38100000D02*
X64135000Y-35640000D01*
X64135000Y-35640000D02*
X61515000Y-33020000D01*
D37*
X64405000Y-38370000D02*
X64215000Y-38180000D01*
D36*
X79850000Y-53340000D02*
X80010000Y-53340000D01*
X80010000Y-53340000D02*
X81200000Y-52150000D01*
X81200000Y-52150000D02*
X81200000Y-50800000D01*
X81200000Y-50800000D02*
X78994000Y-50800000D01*
X78359000Y-50165000D02*
X75930000Y-50165000D01*
X78994000Y-50800000D02*
X78359000Y-50165000D01*
X76280000Y-52705000D02*
X76280000Y-50515000D01*
X76280000Y-50515000D02*
X75930000Y-50165000D01*
X79850000Y-54610000D02*
X82346800Y-54610000D01*
X82346800Y-54610000D02*
X83007200Y-53949600D01*
X76280000Y-55245000D02*
X76120000Y-55245000D01*
X76120000Y-55245000D02*
X73580000Y-52705000D01*
X76280000Y-55245000D02*
X77216000Y-55245000D01*
X77851000Y-54610000D02*
X79850000Y-54610000D01*
X77216000Y-55245000D02*
X77851000Y-54610000D01*
X73580000Y-52705000D02*
X73580000Y-50515000D01*
X73580000Y-50515000D02*
X73930000Y-50165000D01*
X73676000Y-63246000D02*
X73676000Y-64151000D01*
X79930000Y-64770000D02*
X81200000Y-63500000D01*
X74295000Y-64770000D02*
X79930000Y-64770000D01*
X73676000Y-64151000D02*
X74295000Y-64770000D01*
X73326000Y-61087000D02*
X73326000Y-62896000D01*
X73326000Y-62896000D02*
X73676000Y-63246000D01*
X81200000Y-63500000D02*
X81200000Y-61261000D01*
X81200000Y-61261000D02*
X80899000Y-60960000D01*
X80899000Y-60960000D02*
X79850000Y-60960000D01*
X79850000Y-59690000D02*
X81178400Y-59690000D01*
X81178400Y-59690000D02*
X81280000Y-59791600D01*
X76280000Y-57785000D02*
X74955400Y-57785000D01*
X74752200Y-61087000D02*
X76026000Y-61087000D01*
X74726800Y-61112400D02*
X74752200Y-61087000D01*
X74955400Y-57785000D02*
X74930000Y-57759600D01*
X76026000Y-61087000D02*
X76026000Y-62896000D01*
X76026000Y-62896000D02*
X75676000Y-63246000D01*
X79850000Y-59690000D02*
X79121000Y-59690000D01*
X79121000Y-59690000D02*
X77724000Y-61087000D01*
X77724000Y-61087000D02*
X76026000Y-61087000D01*
D35*
X38608000Y-46548000D02*
X38608000Y-42418000D01*
X38846000Y-42180000D02*
X40005000Y-42180000D01*
X38608000Y-42418000D02*
X38846000Y-42180000D01*
X40005000Y-40320000D02*
X40005000Y-42180000D01*
X43180000Y-46548000D02*
X43180000Y-42672000D01*
X42688000Y-42180000D02*
X41910000Y-42180000D01*
X43180000Y-42672000D02*
X42688000Y-42180000D01*
X41910000Y-40320000D02*
X41910000Y-42180000D01*
D36*
X75930000Y-35560000D02*
X75930000Y-33370000D01*
X75930000Y-33370000D02*
X76280000Y-33020000D01*
X76280000Y-33020000D02*
X76280000Y-30480000D01*
X76280000Y-30480000D02*
X79850000Y-30480000D01*
X66852800Y-33020000D02*
X64215000Y-33020000D01*
X66903600Y-33070800D02*
X66852800Y-33020000D01*
X79850000Y-31750000D02*
X80899000Y-31750000D01*
X77597000Y-25400000D02*
X76280000Y-25400000D01*
X78359000Y-26162000D02*
X77597000Y-25400000D01*
X78359000Y-27432000D02*
X78359000Y-26162000D01*
X81153000Y-30226000D02*
X78359000Y-27432000D01*
X81153000Y-31496000D02*
X81153000Y-30226000D01*
X80899000Y-31750000D02*
X81153000Y-31496000D01*
X79850000Y-31750000D02*
X78486000Y-31750000D01*
X78486000Y-31750000D02*
X78232000Y-32004000D01*
X73533000Y-34290000D02*
X73580000Y-34290000D01*
X73580000Y-34290000D02*
X73533000Y-34290000D01*
X73533000Y-34290000D02*
X73580000Y-34290000D01*
X73580000Y-33020000D02*
X73580000Y-34290000D01*
X73580000Y-34290000D02*
X73580000Y-35210000D01*
X73580000Y-35210000D02*
X73930000Y-35560000D01*
X73580000Y-33608000D02*
X73580000Y-33020000D01*
X73580000Y-33608000D02*
X73580000Y-33020000D01*
X73930000Y-33370000D02*
X73580000Y-33020000D01*
D37*
X81550000Y-40005000D02*
X79121000Y-40005000D01*
X79850000Y-57150000D02*
X78740000Y-57150000D01*
X77851000Y-59436000D02*
X68834000Y-59436000D01*
X78105000Y-59182000D02*
X77851000Y-59436000D01*
X78105000Y-57785000D02*
X78105000Y-59182000D01*
X78740000Y-57150000D02*
X78105000Y-57785000D01*
X54927500Y-58467500D02*
X54927500Y-60007500D01*
X54927500Y-60007500D02*
X54610000Y-60325000D01*
X56435000Y-35560000D02*
X56435000Y-35480000D01*
X56435000Y-35480000D02*
X53975000Y-33020000D01*
X40005000Y-33020000D02*
X39831000Y-33194000D01*
X39831000Y-33194000D02*
X39831000Y-34925000D01*
X81550000Y-40005000D02*
X81550000Y-34560000D01*
X81280000Y-34290000D02*
X79850000Y-34290000D01*
X81550000Y-34560000D02*
X81280000Y-34290000D01*
X60642500Y-60167500D02*
X60642500Y-58483500D01*
X57610500Y-58467500D02*
X54927500Y-58467500D01*
X57658000Y-58420000D02*
X57610500Y-58467500D01*
X60642500Y-58483500D02*
X60706000Y-58420000D01*
D35*
X40005000Y-38420000D02*
X40005000Y-35099000D01*
X40005000Y-35099000D02*
X39831000Y-34925000D01*
D37*
X85250000Y-57150000D02*
X83312000Y-57150000D01*
X83312000Y-57150000D02*
X83185000Y-57277000D01*
X59055000Y-45720000D02*
X55245000Y-45720000D01*
X51755000Y-38420000D02*
X41910000Y-38420000D01*
X53975000Y-40640000D02*
X51755000Y-38420000D01*
X53975000Y-44450000D02*
X53975000Y-40640000D01*
X55245000Y-45720000D02*
X53975000Y-44450000D01*
X59135000Y-45640000D02*
X59135000Y-43180000D01*
X59055000Y-45720000D02*
X59135000Y-45640000D01*
X85250000Y-34290000D02*
X86868000Y-34290000D01*
X85725000Y-28575000D02*
X83550000Y-28575000D01*
X85852000Y-28448000D02*
X85725000Y-28575000D01*
X60642500Y-54767500D02*
X60642500Y-53403500D01*
X66357500Y-55181500D02*
X66357500Y-56467500D01*
X66294000Y-55118000D02*
X66357500Y-55181500D01*
X60642500Y-53403500D02*
X60960000Y-53086000D01*
D35*
X41910000Y-38420000D02*
X41910000Y-35734000D01*
X41910000Y-35734000D02*
X42846000Y-34798000D01*
D36*
X63182500Y-51482500D02*
X65372500Y-51482500D01*
X65372500Y-51482500D02*
X65722500Y-51832500D01*
X65372500Y-51482500D02*
X65722500Y-51832500D01*
X63182500Y-51482500D02*
X63182500Y-54767500D01*
X63182500Y-49482500D02*
X63182500Y-48679100D01*
X67767200Y-61972200D02*
X69532500Y-63737500D01*
X67767200Y-54914800D02*
X67767200Y-61972200D01*
X68072000Y-54610000D02*
X67767200Y-54914800D01*
X69494400Y-54610000D02*
X68072000Y-54610000D01*
X70764400Y-53340000D02*
X69494400Y-54610000D01*
X70764400Y-47955200D02*
X70764400Y-53340000D01*
X70205600Y-47396400D02*
X70764400Y-47955200D01*
X64465200Y-47396400D02*
X70205600Y-47396400D01*
X63182500Y-48679100D02*
X64465200Y-47396400D01*
X89201000Y-33020000D02*
X89201000Y-30511000D01*
X89201000Y-30511000D02*
X89170000Y-30480000D01*
X89455000Y-30765000D02*
X89170000Y-30480000D01*
X89455000Y-27940000D02*
X89455000Y-30195000D01*
X89455000Y-30195000D02*
X89170000Y-30480000D01*
X85250000Y-30480000D02*
X89170000Y-30480000D01*
X91901000Y-33020000D02*
X91901000Y-31211000D01*
X91901000Y-31211000D02*
X91170000Y-30480000D01*
X85250000Y-31750000D02*
X83566000Y-31750000D01*
X69777600Y-49196000D02*
X68580000Y-49196000D01*
X69900800Y-49072800D02*
X69777600Y-49196000D01*
X83566000Y-31750000D02*
X83413600Y-31902400D01*
X85250000Y-31750000D02*
X86868000Y-31750000D01*
X87757000Y-33862000D02*
X89455000Y-35560000D01*
X87757000Y-32639000D02*
X87757000Y-33862000D01*
X86868000Y-31750000D02*
X87757000Y-32639000D01*
X89455000Y-35560000D02*
X89615000Y-35560000D01*
X89615000Y-35560000D02*
X92155000Y-33020000D01*
X97155000Y-46435000D02*
X99345000Y-46435000D01*
X99345000Y-46435000D02*
X100330000Y-45450000D01*
X107188000Y-45161200D02*
X107661200Y-45161200D01*
X101752400Y-44450000D02*
X104038400Y-44450000D01*
X104038400Y-44450000D02*
X104749600Y-45161200D01*
X104749600Y-45161200D02*
X107188000Y-45161200D01*
X100752400Y-43450000D02*
X101752400Y-44450000D01*
X107661200Y-45161200D02*
X108585000Y-46085000D01*
X100330000Y-43450000D02*
X100752400Y-43450000D01*
D35*
X108585000Y-49450000D02*
X108585000Y-46085000D01*
X100330000Y-43450000D02*
X100330000Y-42570400D01*
X101170000Y-41730400D02*
X101170000Y-36890000D01*
X100330000Y-42570400D02*
X101170000Y-41730400D01*
X108585000Y-44085000D02*
X108585000Y-42900600D01*
X108585000Y-42900600D02*
X108864400Y-42621200D01*
X108585000Y-44085000D02*
X106395000Y-44085000D01*
X106395000Y-44085000D02*
X106045000Y-43735000D01*
X106045000Y-43735000D02*
X106045000Y-41376600D01*
X104570000Y-39901600D02*
X104570000Y-36890000D01*
X106045000Y-41376600D02*
X104570000Y-39901600D01*
X104505000Y-48895000D02*
X105283000Y-48895000D01*
X106045000Y-48133000D02*
X106045000Y-46435000D01*
X105283000Y-48895000D02*
X106045000Y-48133000D01*
X35136000Y-34925000D02*
X37131000Y-34925000D01*
X45546000Y-34798000D02*
X47668000Y-34798000D01*
D37*
X52324000Y-25400000D02*
X56435000Y-25400000D01*
D35*
X108585000Y-52150000D02*
X111760000Y-52150000D01*
X111760000Y-52150000D02*
X111840000Y-52070000D01*
X111840000Y-52070000D02*
X114300000Y-52070000D01*
X114300000Y-52070000D02*
X116205000Y-50165000D01*
X116205000Y-50165000D02*
X116205000Y-47625000D01*
D37*
X61595000Y-35560000D02*
X59135000Y-35560000D01*
X59135000Y-35560000D02*
X59135000Y-38100000D01*
X56435000Y-43180000D02*
X56515000Y-43180000D01*
X56515000Y-43180000D02*
X59055000Y-40640000D01*
X59055000Y-40640000D02*
X59135000Y-40640000D01*
X59135000Y-40640000D02*
X61595000Y-40640000D01*
X59135000Y-25400000D02*
X61595000Y-25400000D01*
D36*
X64135000Y-27940000D02*
X66675000Y-27940000D01*
X69215000Y-25400000D02*
X73580000Y-25400000D01*
X66675000Y-27940000D02*
X69215000Y-25400000D01*
X93370400Y-52070000D02*
X93370400Y-51714400D01*
X89052400Y-58978800D02*
X93014800Y-58978800D01*
X93014800Y-58978800D02*
X93370400Y-58623200D01*
X93370400Y-58623200D02*
X93421200Y-58623200D01*
X93421200Y-58623200D02*
X93370400Y-58572400D01*
X93370400Y-58572400D02*
X93370400Y-52070000D01*
X88185000Y-58111400D02*
X89052400Y-58978800D01*
X92456000Y-50800000D02*
X83900000Y-50800000D01*
X93370400Y-51714400D02*
X92456000Y-50800000D01*
X88185000Y-57785000D02*
X88185000Y-58111400D01*
X85250000Y-58420000D02*
X87550000Y-58420000D01*
X87550000Y-58420000D02*
X88185000Y-57785000D01*
X85250000Y-59690000D02*
X84201000Y-59690000D01*
X83900000Y-59991000D02*
X83900000Y-63500000D01*
X84201000Y-59690000D02*
X83900000Y-59991000D01*
X85250000Y-59690000D02*
X87550000Y-59690000D01*
X87550000Y-59690000D02*
X88185000Y-60325000D01*
X79850000Y-35560000D02*
X78613000Y-35560000D01*
X71755000Y-32305000D02*
X73580000Y-30480000D01*
X71755000Y-36322000D02*
X71755000Y-32305000D01*
X72517000Y-37084000D02*
X71755000Y-36322000D01*
X77089000Y-37084000D02*
X72517000Y-37084000D01*
X78613000Y-35560000D02*
X77089000Y-37084000D01*
X73580000Y-27940000D02*
X73580000Y-30480000D01*
X71018400Y-40661600D02*
X72945000Y-38735000D01*
X71018400Y-43535600D02*
X71018400Y-40661600D01*
X70815200Y-43738800D02*
X71018400Y-43535600D01*
X75996800Y-48260000D02*
X72745600Y-48260000D01*
X98094800Y-56083200D02*
X98094800Y-53086000D01*
X99009200Y-56997600D02*
X98094800Y-56083200D01*
X85250000Y-60960000D02*
X85852000Y-60960000D01*
X85852000Y-60960000D02*
X86918800Y-62026800D01*
X86918800Y-62026800D02*
X89183200Y-62026800D01*
X89183200Y-62026800D02*
X90885000Y-60325000D01*
X58102500Y-63737500D02*
X61095900Y-63737500D01*
X92710000Y-62484000D02*
X90885000Y-60659000D01*
X61095900Y-63737500D02*
X62280800Y-64922400D01*
X90885000Y-60659000D02*
X90885000Y-60325000D01*
X58102500Y-60167500D02*
X58102500Y-60896500D01*
X58102500Y-60896500D02*
X56896000Y-62103000D01*
X56896000Y-62103000D02*
X56896000Y-65231000D01*
X56896000Y-65231000D02*
X58102500Y-66437500D01*
X55562500Y-66437500D02*
X58102500Y-66437500D01*
X75645000Y-38735000D02*
X76581000Y-38735000D01*
X78486000Y-36830000D02*
X79850000Y-36830000D01*
X76581000Y-38735000D02*
X78486000Y-36830000D01*
X75645000Y-41275000D02*
X75645000Y-38735000D01*
X72945000Y-41275000D02*
X72945000Y-41906200D01*
X72945000Y-41906200D02*
X75438000Y-44399200D01*
X75438000Y-44399200D02*
X78689200Y-44399200D01*
X78689200Y-44399200D02*
X80010000Y-45720000D01*
X80010000Y-45720000D02*
X80010000Y-44805600D01*
X78841600Y-38100000D02*
X79850000Y-38100000D01*
X77978000Y-38963600D02*
X78841600Y-38100000D01*
X77978000Y-42773600D02*
X77978000Y-38963600D01*
X80010000Y-44805600D02*
X77978000Y-42773600D01*
X61277500Y-66357500D02*
X61150500Y-66357500D01*
X61150500Y-66357500D02*
X59309000Y-68199000D01*
X59309000Y-68199000D02*
X54229000Y-68199000D01*
X54229000Y-68199000D02*
X53721000Y-67691000D01*
X53721000Y-67691000D02*
X53721000Y-64389000D01*
X53721000Y-64389000D02*
X54372500Y-63737500D01*
X54372500Y-63737500D02*
X55562500Y-63737500D01*
X56832500Y-60167500D02*
X56832500Y-60896500D01*
X56832500Y-60896500D02*
X55562500Y-62166500D01*
X55562500Y-62166500D02*
X55562500Y-63737500D01*
D38*
X55562500Y-63737500D02*
X55562500Y-63309500D01*
D36*
X89455000Y-41275000D02*
X89615000Y-41275000D01*
X89615000Y-41275000D02*
X92155000Y-38735000D01*
X85250000Y-36830000D02*
X86614000Y-36830000D01*
X87122000Y-39497000D02*
X88900000Y-41275000D01*
X86614000Y-36830000D02*
X87122000Y-36322000D01*
X88900000Y-41275000D02*
X89455000Y-41275000D01*
X89455000Y-38735000D02*
X86791800Y-38735000D01*
X86207600Y-39471600D02*
X86055200Y-39624000D01*
X86207600Y-39319200D02*
X86207600Y-39471600D01*
X86791800Y-38735000D02*
X86207600Y-39319200D01*
X64452500Y-60167500D02*
X64452500Y-61810900D01*
X67999600Y-67970400D02*
X69532500Y-66437500D01*
X65125600Y-67970400D02*
X67999600Y-67970400D01*
X64363600Y-67208400D02*
X65125600Y-67970400D01*
X64363600Y-65532000D02*
X64363600Y-67208400D01*
X65379600Y-64516000D02*
X64363600Y-65532000D01*
X65379600Y-62738000D02*
X65379600Y-64516000D01*
X64452500Y-61810900D02*
X65379600Y-62738000D01*
X63182500Y-60167500D02*
X64452500Y-60167500D01*
X90631000Y-37084000D02*
X92155000Y-35560000D01*
X87884000Y-37084000D02*
X90631000Y-37084000D01*
X85250000Y-38100000D02*
X86868000Y-38100000D01*
X86868000Y-38100000D02*
X87884000Y-37084000D01*
X92155000Y-41275000D02*
X92837000Y-41275000D01*
X92837000Y-41275000D02*
X94361000Y-39751000D01*
X94361000Y-39751000D02*
X94361000Y-37766000D01*
X94361000Y-37766000D02*
X92155000Y-35560000D01*
X64452500Y-54767500D02*
X64452500Y-54419500D01*
X64452500Y-54419500D02*
X65405000Y-53467000D01*
X65405000Y-53467000D02*
X67009000Y-53467000D01*
X67009000Y-53467000D02*
X68580000Y-51896000D01*
X68580000Y-51896000D02*
X68486000Y-51896000D01*
X68486000Y-51896000D02*
X65722500Y-49132500D01*
D35*
X99470000Y-36890000D02*
X97088000Y-36890000D01*
X92155000Y-29036000D02*
X92155000Y-27940000D01*
X93599000Y-30480000D02*
X92155000Y-29036000D01*
X93599000Y-33401000D02*
X93599000Y-30480000D01*
X97088000Y-36890000D02*
X93599000Y-33401000D01*
X97155000Y-43735000D02*
X97155000Y-42697400D01*
X99470000Y-40382400D02*
X99470000Y-36890000D01*
X97155000Y-42697400D02*
X99470000Y-40382400D01*
D36*
X61912500Y-60167500D02*
X61912500Y-61912500D01*
X61912500Y-61912500D02*
X63817500Y-63817500D01*
D35*
X38608000Y-48448000D02*
X36368000Y-48448000D01*
X36368000Y-48448000D02*
X35935000Y-48015000D01*
X43180000Y-48448000D02*
X43180000Y-49530000D01*
X50540000Y-51810000D02*
X50540000Y-48650000D01*
X50546000Y-51816000D02*
X50540000Y-51810000D01*
X43180000Y-49530000D02*
X42418000Y-50292000D01*
D38*
G36*
X110365000Y-33530000D02*
X107249814Y-33530000D01*
X106820000Y-33442960D01*
X105720000Y-33442960D01*
X105408985Y-33501481D01*
X105120000Y-33442960D01*
X104020000Y-33442960D01*
X103603100Y-33521405D01*
X103589743Y-33530000D01*
X102149814Y-33530000D01*
X101720000Y-33442960D01*
X100620000Y-33442960D01*
X100308985Y-33501481D01*
X100020000Y-33442960D01*
X98920000Y-33442960D01*
X98503100Y-33521405D01*
X98489743Y-33530000D01*
X95857806Y-33530000D01*
X95375000Y-33047194D01*
X95375000Y-21520000D01*
X110365000Y-21520000D01*
X110365000Y-33530000D01*
X110365000Y-33530000D01*
G37*
X110365000Y-33530000D02*
X107249814Y-33530000D01*
X106820000Y-33442960D01*
X105720000Y-33442960D01*
X105408985Y-33501481D01*
X105120000Y-33442960D01*
X104020000Y-33442960D01*
X103603100Y-33521405D01*
X103589743Y-33530000D01*
X102149814Y-33530000D01*
X101720000Y-33442960D01*
X100620000Y-33442960D01*
X100308985Y-33501481D01*
X100020000Y-33442960D01*
X98920000Y-33442960D01*
X98503100Y-33521405D01*
X98489743Y-33530000D01*
X95857806Y-33530000D01*
X95375000Y-33047194D01*
X95375000Y-21520000D01*
X110365000Y-21520000D01*
X110365000Y-33530000D01*
M02*
